<svg width="20" height="20" viewBox="0 0 20 20" fill="none" xmlns="http://www.w3.org/2000/svg">
<path fill-rule="evenodd" clip-rule="evenodd" d="M19.2 10.2178C19.2 9.53825 19.139 8.88484 19.0258 8.25757H10V11.9646H15.1576C14.9354 13.1625 14.2602 14.1775 13.2453 14.857V17.2615H16.3424C18.1545 15.5932 19.2 13.1364 19.2 10.2178Z" fill="#4285F4"/>
<path fill-rule="evenodd" clip-rule="evenodd" d="M9.99997 19.5829C12.5875 19.5829 14.7568 18.7248 16.3424 17.2612L13.2452 14.8566C12.3871 15.4316 11.2894 15.7714 9.99997 15.7714C7.50395 15.7714 5.39126 14.0856 4.63766 11.8204H1.43596V14.3034C3.01285 17.4354 6.25376 19.5829 9.99997 19.5829Z" fill="#34A853"/>
<path fill-rule="evenodd" clip-rule="evenodd" d="M4.63769 11.8213C4.44603 11.2463 4.33713 10.6321 4.33713 10.0004C4.33713 9.36881 4.44603 8.75461 4.63769 8.17961V5.69666H1.43599C0.786937 6.99041 0.416672 8.45404 0.416672 10.0004C0.416672 11.5468 0.786937 13.0105 1.43599 14.3042L4.63769 11.8213Z" fill="#FBBC05"/>
<path fill-rule="evenodd" clip-rule="evenodd" d="M9.99993 4.22818C11.4069 4.22818 12.6702 4.7117 13.6634 5.66132L16.412 2.91265C14.7524 1.36625 12.5831 0.416626 9.99993 0.416626C6.25372 0.416626 3.01281 2.56416 1.43591 5.69617L4.63762 8.17913C5.39122 5.91397 7.50391 4.22818 9.99993 4.22818Z" fill="#EA4335"/>
</svg>
